<svg viewBox="0 0 168 59" xmlns="http://www.w3.org/2000/svg"><g fill="none" fill-rule="evenodd"><path fill="#005781" d="m120.586 26.343.45-.503.663-.612.805-.783.464-.464.747-.705.54-.592.468-.54.487-.506.559-.565.618-.853.756-.655.541-.774.54-.776 1.14-1.238.818-1.08.99-1.22.713-1.028.437-.624.617-1.085.567-1.017.879-1.131.72-.642.695-.773.696-.854.772-1.007.696-.929.789-1.051.834-.886.942-1.107.758-.753.773-.697.773-.155.697.233.385.611.452.819.47 1.08.431.875.587 1.257.378.937.486.904.752 1.236.528 1.004 1.094 1.248.62.876.618 1.084.464.62.44.746.677.958.738 1.008.392 1.1.648 1.387.618 1.162.66.922.49 1.008.537.935.405.989.404 1.115.602.933.557.871.64 1.044.463.93.54.93.696.851.632.55.766.836.782.801 1.321 1.604-.718.082-.541-.076-.851-.155-1.158-.2-1.14-.152-1.381-.162-1.478-.192-1.336-.148-1.391-.154-1.653-.22-1.92-.235-1.68-.235-1.582-.17-1.856-.155-1.742-.268-1.13-.156-1.112-.188-1.442-.248-1.705-.261-1.72-.314-1.495-.296-1.67-.419-1.999-.592-1.078-.262-1.13-.382-1.442-.402-1.235-.348-1.93-.418-1.355-.279-1.548-.244-1.251-.14z"/><path fill="#55B9A1" d="m110 15.575.781-.558.695-.61.818-.61.817-.505.952-.378 1.235-.413 1.098-.395.922-.263 1.616-.416 1.374-.26 1.147-.036h1.339l1.408-.017 1.338.035 1.182.087 1.356.244 1.13.313 1.2.402 1.617.557 1.304.558.99.435 1.287.488 1.286.366 1.65.418 1.515.4 1.129.192 1.075.185 1.272.251 1.356.157 1.08.064 1.736.04h1.407l1.328.02 1.645-.02 1.165-.069 1.322-.192 1.2-.21 1.286-.26 1.356-.35 1.095-.278 1.095-.435.974-.315 1.269-.608 1.078-.489.903-.575 1.061-.627.886-.4.731-.402.294-.087.071.436-.262.488-.66.783-.852 1.099-1.06 1.097-.887.994-1.112 1.097-.904.715-1.061.766-1.425.697-1.131.47-1.737.384-1.691.182-1.413.117-1.938.154-1.79.053-2.069-.087-2.087-.245-1.616-.313-1.738-.366-1.53-.434-1.117-.295-1.855-.7-1.566-.522-1.737-.645-1.583-.575-1.18-.755-1.166-.605-1.374-.453-1.46-.47-1.548-.192-1.459-.14-1.757-.016-1.616.017-1.686.034-1.965.315-1.737.366-1.844.47-1.408.331-1.251.47-1.149.279-.973.21z"/><path d="m104.513 20.885.566-.379.661-.401 1.338-.75.921-.33 1.08-.5 1.111-.354 1.217-.4.956-.263 1.321-.353 1.172-.196 1.412-.197 1.325-.064 1.109-.066 1.151.022 1.238.021 1.65.044 1.452.072 1.394.19 1.77.302 1.145.343 1.036.326 1.356.55 1.044.523 1.199.609c.235.12 1.147.523 1.147.523s1.225.655 1.46.715c.237.059 1.577.466 1.577.466l1.536.405 1.91.427 1.723.27 1.56.184 1.41.118 1.15.081s.707.08 1.06.14a31.59 31.59 0 0 1 1.043.208l.574.245-.539.296-.643.209-.94.313-.955.279-.708.235-.822.132-.939.069-1.407.087h-1.513l-1.477-.14-1.738-.208-1.797-.256-1.68-.424-1.687-.627-1.86-.802-1.652-.731-1.467-.614-1.059-.353-.817-.33-1.176-.352-1.634-.337-1.599-.16-1.271-.075-1.65-.062-1.425.087-1.584.107-2.054.125-1.876.107-1.125.107-1.537.198-1.41.305-1.349.27-.922.28-.818.121.356-.387Z" fill="#55B9A1"/><path d="M6.18 37.62v1.455c0 1.57-.703 1.945-2.216 1.945h-.73c-1.78 0-2.563-.33-2.563-2.399v-2.07c0-1.812.819-2.33 1.958-2.33h1.753c1.006 0 1.78.412 1.78 1.49v.518h-.756v-.382c0-.769-.303-.956-1.388-.956h-.935c-1.442 0-1.656.285-1.656 1.75v2.149c0 1.277.428 1.562 1.674 1.562h.712c1.326 0 1.61-.162 1.61-1.232v-.83H3.298v-.67H6.18Zm3.018-.4h3.382v.624H9.198v2.455h3.533v.668h-4.29v-6.692h4.29v.67H9.198zm10.138 3.747h-.748l-2.528-6.12h-.018v6.12h-.756v-6.692h1.308l2.359 5.728 2.367-5.728h1.309v6.692h-.757v-6.12h-.018zm6.639-3.747h3.383v.624h-3.383v2.455h3.534v.668h-4.29v-6.692h4.29v.67h-3.534zm6.106 3.747h.757v-6.692h-.757zm9.355 0h-1.237L36.45 34.9h-.017v6.067h-.758v-6.692h1.246l3.74 6.113h.016v-6.113h.758zm3.534-.668v-5.355h2.616c1.273 0 1.407 1.24 1.407 1.615v1.758c-.018 1.196-.197 1.982-1.531 1.982H44.97Zm-.757.668h3.425c2.004 0 2.111-1.856 2.111-2.516v-1.596c0-2.473-1.477-2.58-2.287-2.58h-3.25v6.692ZM52.9 37.22h3.382v.624H52.9v2.455h3.534v.668h-4.29v-6.692h4.29v.67H52.9z" fill="#005781"/><path d="M31.149 56.485h-.033c-.468 1.071-1.586 1.272-2.737 1.272-2.32 0-3.138-.937-3.138-3.245v-5.638h1.319v5.638c0 1.421.1 2.174 1.802 2.174 1.852 0 2.804-.3 2.804-2.392v-5.42h1.318v8.782h-1.335v-1.17Zm5.006-7.611-.067 1.088.034.033c.45-.97 1.501-1.221 2.487-1.221 1.685 0 2.436.836 2.436 2.476v.635h-1.251V51.3c0-1.087-.369-1.456-1.47-1.456-1.635 0-2.169.787-2.136 2.342v5.47H34.87v-8.782h1.285Zm11.747 1.071h-3.388v5.57c.016.954.267 1.171 1.235 1.171 1.235 0 1.235-.652 1.235-1.489v-.652h1.252v.652c0 1.741-.718 2.56-2.52 2.56-2.053 0-2.52-.585-2.52-2.643v-5.17h-1.17v-1.07h1.17V46.75h1.318v2.124h3.388v1.07Zm2.821 2.543c.1-2.025.183-2.644 2.569-2.644 2.003 0 2.304.151 2.37 2.644h-4.94Zm4.956 2.509v.334c0 1.24-.584 1.355-2.387 1.355-2.37 0-2.57-.35-2.57-3.128h6.309v-.887c0-3.245-.901-3.897-3.74-3.897-3.136 0-3.938.853-3.938 4.5 0 3.346.519 4.483 3.939 4.483 1.952 0 3.739-.117 3.739-2.441v-.32h-1.352Zm4.957-5.052h.032c.417-1.054 1.703-1.171 2.705-1.171 2.252 0 3.337.602 3.304 3.044v5.838h-1.32v-5.938c0-1.606-.616-1.874-2.101-1.874-2.153 0-2.62.67-2.62 2.694v5.118h-1.319v-8.782h1.319v1.07Zm9.696 2.543c.1-2.025.182-2.644 2.569-2.644 2.002 0 2.304.151 2.37 2.644h-4.94Zm4.955 2.509v.334c0 1.24-.583 1.355-2.386 1.355-2.369 0-2.57-.35-2.57-3.128h6.31v-.887c0-3.245-.903-3.897-3.74-3.897-3.138 0-3.939.853-3.939 4.5 0 3.346.518 4.483 3.939 4.483 1.952 0 3.74-.117 3.74-2.441v-.32h-1.354Zm4.957-5.052h.033c.417-1.054 1.704-1.171 2.704-1.171 2.253 0 3.338.602 3.304 3.044v5.838h-1.318v-5.938c0-1.606-.617-1.874-2.102-1.874-2.154 0-2.621.67-2.621 2.694v5.118h-1.317v-8.782h1.317v1.07Z" fill="#55B9A1"/><path d="M95.781 51.166h-1.368v-.335c0-.886-.668-.886-2.053-.886-1.652 0-2.454-.016-2.454 1.07 0 1.573.435 1.456 1.803 1.523 2.253.133 4.306-.218 4.306 2.643 0 2.475-1.702 2.576-3.655 2.576-1.903 0-3.889-.1-3.889-2.058v-.82h1.369v.686c0 .837.518 1.02 2.52 1.02.901 0 2.286.202 2.286-1.354 0-1.64-.684-1.338-2.286-1.439-1.903-.134-3.821.067-3.821-2.425 0-2.543 1.451-2.593 3.82-2.593 1.536 0 3.422.067 3.422 2.057v.335Zm9.563 3.314v.483c0 2.476-1.636 2.794-3.722 2.794-3.639 0-3.889-1.405-3.889-4.667 0-2.86.502-4.316 3.672-4.316 2.12 0 3.789.234 3.789 2.727v.235h-1.319v-.269c0-1.588-.868-1.623-2.386-1.623-2.337 0-2.387.803-2.387 3.614 0 2.475.1 3.228 2.67 3.228 1.653 0 2.253-.184 2.253-1.773v-.434h1.319Zm3.403-4.535h.033c.417-1.054 1.704-1.171 2.705-1.171 2.252 0 3.338.602 3.305 3.044v5.838h-1.32v-5.938c0-1.606-.617-1.874-2.101-1.874-2.154 0-2.622.67-2.622 2.694v5.118h-1.317V45.111h1.317v4.834Zm9.696 3.33c0-3.063.168-3.43 2.521-3.43 2.353 0 2.52.367 2.52 3.43 0 3.043-.167 3.411-2.52 3.411s-2.52-.368-2.52-3.411Zm.118-5.304h1.469v-1.237h-1.469v1.237Zm3.338 0h1.468v-1.237H121.9v1.237Zm-4.824 5.304c0 3.696.635 4.482 3.89 4.482 3.253 0 3.888-.786 3.888-4.482 0-3.715-.635-4.501-3.889-4.501-3.254 0-3.89.786-3.89 4.5Zm11.365-3.33h.034c.418-1.054 1.701-1.171 2.702-1.171 2.255 0 3.338.602 3.305 3.044v5.838h-1.318v-5.938c0-1.606-.617-1.874-2.103-1.874-2.153 0-2.62.67-2.62 2.694v5.118h-1.319v-8.782h1.319v1.07Zm14.82 3.33c0 2.409-.083 3.411-2.42 3.411-1.936 0-2.454-.569-2.454-3.411 0-2.51.152-3.43 2.453-3.43 2.103 0 2.42.552 2.42 3.43Zm-6.226 4.381h1.319V56.62l.033-.034c.484.953 1.636 1.17 2.821 1.17 3.037 0 3.42-1.622 3.42-4.481 0-2.745-.4-4.501-3.42-4.501-1.018 0-2.403.117-2.821 1.238h-.033V45.11h-1.319v12.545Zm14.386-9.685h1.47v-1.237h-1.47v1.237Zm-3.338 0h1.47v-1.237h-1.47v1.237Zm4.656 9.685h1.336v-8.782h-1.319v5.42c0 2.091-.951 2.392-2.803 2.392-1.703 0-1.802-.753-1.802-2.174v-5.638h-1.319v5.638c0 2.308.818 3.245 3.138 3.245 1.15 0 2.269-.201 2.736-1.272h.033v1.171Zm5.225-7.711h.033c.417-1.054 1.702-1.171 2.702-1.171 2.254 0 3.338.602 3.306 3.044v5.838h-1.319v-5.938c0-1.606-.617-1.874-2.103-1.874-2.154 0-2.62.67-2.62 2.694v5.118h-1.318V45.111h1.319v4.834Zm8.593 7.711h1.32V45.111h-1.32z" fill="#005781"/></g></svg>